<svg width="37" height="9" viewBox="0 0 37 9" fill="none" xmlns="http://www.w3.org/2000/svg">
<path d="M4.49901 0L0.437012 8.988H5.29901L5.90201 7.555H7.28001L7.88301 8.988H13.235V7.895L13.712 8.988H16.48L16.957 7.872V8.988H28.088L29.442 7.593L30.709 8.988L36.426 9L32.352 4.52L36.426 0H30.798L29.48 1.37L28.253 0H16.144L15.104 2.32L14.04 0H9.18701V1.057L8.64801 0H4.49901ZM5.43901 1.276H7.81001L10.504 7.372V1.276H13.1L15.181 5.646L17.099 1.276H19.682V7.726H18.11L18.098 2.672L15.806 7.726H14.4L12.095 2.672V7.726H8.86101L8.24801 6.28H4.93601L4.32401 7.725H2.59101L5.43901 1.276V1.276ZM21.121 1.276H27.513L29.468 3.388L31.486 1.276H33.441L30.47 4.518L33.441 7.722H31.397L29.442 5.586L27.414 7.722H21.121V1.276ZM6.59201 2.368L5.50101 4.944H7.68201L6.59201 2.368V2.368ZM22.699 2.612V3.789H26.186V5.101H22.699V6.387H26.61L28.428 4.494L26.687 2.611H22.699V2.612Z" fill="#2478BC"/>
</svg>
