<svg width="20" height="12" viewBox="0 0 20 12" fill="none" xmlns="http://www.w3.org/2000/svg">
<g clip-path="url(#clip0_435_3445)">
<path d="M7.26416 1.2832H12.9432V10.7165H7.26416V1.2832Z" fill="#F26122"/>
<path d="M10.0789 10.717C9.04995 11.5469 7.76791 11.9997 6.44594 12C5.66514 11.9931 4.89337 11.8323 4.17472 11.527C3.45607 11.2217 2.80463 10.7777 2.25763 10.2205C1.71064 9.6633 1.27881 9.00376 0.986822 8.27958C0.694837 7.55541 0.54842 6.78079 0.55594 6C0.548552 5.21925 0.695059 4.44469 0.987091 3.72057C1.27912 2.99645 1.71096 2.33696 2.25793 1.77978C2.8049 1.22259 3.45628 0.778629 4.17488 0.47325C4.89347 0.16787 5.66518 0.00705835 6.44594 0C7.76794 0 9.04994 0.453 10.0789 1.283C9.37809 1.85321 8.81311 2.57244 8.42508 3.38838C8.03704 4.20433 7.83571 5.09649 7.83571 6C7.83571 6.90351 8.03704 7.79567 8.42508 8.61162C8.81311 9.42756 9.37809 10.1468 10.0789 10.717Z" fill="#EA1D25"/>
<path d="M19.619 6C19.6264 6.78075 19.4799 7.55531 19.1878 8.27943C18.8958 9.00355 18.464 9.66304 17.917 10.2202C17.37 10.7774 16.7186 11.2214 16 11.5267C15.2814 11.8321 14.5097 11.9929 13.729 12C12.4067 11.9998 11.1243 11.5471 10.095 10.717C10.7957 10.1467 11.3605 9.42742 11.7484 8.61149C12.1363 7.79556 12.3376 6.90345 12.3376 6C12.3376 5.09655 12.1363 4.20444 11.7484 3.38851C11.3605 2.57258 10.7957 1.85332 10.095 1.283C11.124 0.453064 12.406 0.00030786 13.728 0C14.5089 0.00679658 15.2807 0.167423 15.9995 0.472698C16.7183 0.777973 17.3698 1.22191 17.9169 1.77914C18.464 2.33636 18.8959 2.99594 19.188 3.72019C19.48 4.44443 19.6265 5.21913 19.619 6Z" fill="#F69E1E"/>
</g>
<defs>
<clipPath id="clip0_435_3445">
<rect width="20" height="12" fill="white"/>
</clipPath>
</defs>
</svg>
