<svg width="29" height="9" viewBox="0 0 29 9" fill="none" xmlns="http://www.w3.org/2000/svg">
<path fill-rule="evenodd" clip-rule="evenodd" d="M20.839 6.026C20.845 4.651 19.706 4.053 18.795 3.576C18.184 3.254 17.676 2.987 17.684 2.576C17.691 2.263 17.989 1.93 18.639 1.846C19.4007 1.77266 20.168 1.90636 20.86 2.233L21.256 0.387C20.5823 0.133713 19.8688 0.00265969 19.149 0C16.923 0 15.357 1.183 15.342 2.877C15.328 4.13 16.461 4.83 17.314 5.247C18.192 5.673 18.486 5.947 18.483 6.329C18.483 6.914 17.782 7.17 17.135 7.181C16.036 7.197 15.385 6.893 14.868 6.652L14.822 6.631L14.415 8.538C14.941 8.779 15.913 8.99 16.919 9C19.286 9 20.833 7.831 20.841 6.022L20.839 6.026ZM11.51 0.163L7.86103 8.869H5.48003L3.68403 1.92C3.57403 1.492 3.48003 1.336 3.14803 1.155C2.60803 0.861 1.71403 0.586 0.926025 0.415L0.979025 0.155H4.81203C5.0616 0.155885 5.30267 0.245811 5.49186 0.408598C5.68104 0.571385 5.80592 0.796345 5.84403 1.043L6.79203 6.075L9.13503 0.151L11.51 0.163ZM28.8 8.86H26.718L26.446 7.566H23.557L23.087 8.867H20.722L24.101 0.8C24.178 0.608908 24.3106 0.445301 24.4815 0.33032C24.6525 0.215339 24.854 0.154268 25.06 0.155H26.982L28.8 8.86ZM24.206 5.776L25.392 2.508L26.068 5.784L24.206 5.776ZM12.869 8.861L14.731 0.155H12.476L10.613 8.86H12.869V8.861Z" fill="#122D98"/>
</svg>
