<svg width="32" height="31" viewBox="0 0 32 31" fill="none" xmlns="http://www.w3.org/2000/svg">
<path d="M14.998 1.032C14.6412 1.23768 14.3566 1.5485 14.183 1.922L10.577 9.688L1.95104 10.8C1.69048 10.8336 1.43908 10.9181 1.2112 11.0489C0.983329 11.1796 0.783448 11.354 0.622979 11.562C0.462509 11.77 0.344595 12.0076 0.275973 12.2612C0.207351 12.5148 0.189366 12.7794 0.223045 13.04L0.254045 13.215C0.344318 13.6223 0.559703 13.9912 0.870045 14.27L7.23004 19.996L5.51404 28.604C5.41046 29.1241 5.51765 29.664 5.81207 30.1051C6.10648 30.5461 6.56401 30.8522 7.08404 30.956L7.26404 30.984C7.68627 31.0288 8.11181 30.9381 8.47904 30.725L15.998 26.367L23.518 30.725C23.7453 30.8568 23.9963 30.9426 24.2567 30.9774C24.5171 31.0122 24.7818 30.9954 25.0357 30.9279C25.2895 30.8604 25.5276 30.7435 25.7364 30.584C25.9451 30.4244 26.1203 30.2253 26.252 29.998L26.336 29.836C26.5144 29.4513 26.5659 29.0199 26.483 28.604L24.766 19.996L31.127 14.27C31.3223 14.0942 31.481 13.8818 31.5941 13.6447C31.7072 13.4076 31.7725 13.1505 31.7863 12.8882C31.8 12.6258 31.7619 12.3633 31.6742 12.1157C31.5865 11.8681 31.4509 11.6402 31.275 11.445L31.15 11.318C30.8447 11.0344 30.4583 10.8533 30.045 10.8L21.418 9.687L17.812 1.922C17.5885 1.4411 17.1832 1.06865 16.6851 0.886562C16.187 0.704474 15.637 0.727653 15.156 0.951001L14.998 1.032ZM11.928 11.531L15.998 2.765L20.068 11.531L29.788 12.783L22.582 19.272L24.52 28.995L15.997 24.055L7.47504 28.995L9.41404 19.272L2.20704 12.783L11.928 11.531Z" fill="#222222"/>
</svg>
