<svg width="32" height="30" viewBox="0 0 32 30" fill="none" xmlns="http://www.w3.org/2000/svg">
<path d="M17.9773 0.905515L18.1213 1.04048L31.3738 14.2929L29.9596 15.7071L28.9992 14.7468L29.0001 27.33C29.0001 28.3844 28.1842 29.2482 27.1493 29.3245L27.0001 29.33H5.00008C3.94571 29.33 3.08191 28.5141 3.00556 27.4793L3.00008 27.33L2.99922 14.7478L2.04043 15.7071L0.626221 14.2929L13.8787 1.04046C15.0035 -0.0842298 16.799 -0.129218 17.9773 0.905515ZM15.3871 2.37151L15.2929 2.4547L4.99922 12.7478L5.00008 27.33H10.9992L11.0001 17.3334C11.0001 16.279 11.8159 15.4152 12.8508 15.3389L13.0001 15.3334H19.0001C20.0545 15.3334 20.9182 16.1493 20.9946 17.1841L21.0001 17.3334L20.9992 27.33H27.0001L26.9992 12.7468L16.707 2.45467C16.3466 2.09421 15.7794 2.06648 15.3871 2.37151ZM19.0001 17.3334H13.0001L12.9992 27.3298H18.9992L19.0001 17.3334Z" fill="#222222"/>
</svg>
