<svg width="30" height="30" viewBox="0 0 30 30" fill="none" xmlns="http://www.w3.org/2000/svg">
<path d="M29 0C29.2449 3.23106e-05 29.4813 0.0899561 29.6644 0.252715C29.8474 0.415474 29.9643 0.639749 29.993 0.883L30 1V29C30 29.2449 29.91 29.4813 29.7473 29.6644C29.5845 29.8474 29.3603 29.9643 29.117 29.993L29 30H1C0.755067 30 0.518663 29.91 0.335628 29.7473C0.152593 29.5845 0.0356572 29.3603 0.00699997 29.117L0 29V1C3.23106e-05 0.755067 0.0899561 0.518663 0.252715 0.335628C0.415474 0.152593 0.639749 0.0356572 0.883 0.00699997L1 0H29ZM2 2V28H14V2H2ZM9 11V17.585L10.793 15.793L12.207 17.207L8.707 20.707C8.53481 20.8792 8.30571 20.9826 8.06268 20.9979C7.81965 21.0132 7.5794 20.9393 7.387 20.79L7.293 20.707L3.793 17.207L5.207 15.793L7 17.585V11H9ZM21.387 9.503C21.5624 9.36693 21.778 9.29308 22 9.29308C22.222 9.29308 22.4376 9.36693 22.613 9.503L22.707 9.586L26.207 13.086L24.793 14.5L23 12.707V19H21V12.707L19.207 14.5L17.793 13.086L21.293 9.586L21.387 9.503ZM16 28H28V2H16V28Z" fill="#222222"/>
</svg>
