<svg width="28" height="28" viewBox="0 0 28 28" fill="none" xmlns="http://www.w3.org/2000/svg">
<path d="M26 1.00268e-07C26.5046 -0.000159579 26.9906 0.190406 27.3605 0.533497C27.7305 0.876588 27.9572 1.34684 27.995 1.85L28 2V26C28.0002 26.5046 27.8096 26.9906 27.4665 27.3605C27.1234 27.7305 26.6532 27.9572 26.15 27.995L26 28H2C1.49542 28.0002 1.00943 27.8096 0.639452 27.4665C0.269471 27.1234 0.0428434 26.6532 0.00500021 26.15L1.00268e-07 26V2C-0.000159579 1.49542 0.190406 1.00943 0.533497 0.639452C0.876588 0.269471 1.34684 0.0428434 1.85 0.00500021L2 1.00268e-07H26ZM26 2H2V26H26V2ZM14 5C16.3869 5 18.6761 5.94821 20.364 7.63604C22.0518 9.32387 23 11.6131 23 14C23 16.3869 22.0518 18.6761 20.364 20.364C18.6761 22.0518 16.3869 23 14 23C11.6131 23 9.32387 22.0518 7.63604 20.364C5.94821 18.6761 5 16.3869 5 14C5 11.6131 5.94821 9.32387 7.63604 7.63604C9.32387 5.94821 11.6131 5 14 5ZM8.159 12.5C7.817 12.5 7.479 12.524 7.145 12.573C6.7947 14.2374 7.06239 15.9724 7.89805 17.4539C8.73371 18.9353 10.0802 20.0618 11.6858 20.6228C13.2915 21.1839 15.0465 21.1412 16.623 20.5026C18.1994 19.8641 19.4894 18.6734 20.252 17.153C18.9981 17.2639 17.735 17.1099 16.5445 16.7009C15.3541 16.2919 14.2629 15.6371 13.342 14.779L13.106 14.549C12.4573 13.898 11.6863 13.3819 10.8372 13.0302C9.9882 12.6785 9.07798 12.4983 8.159 12.5ZM14 7C12.7701 6.99943 11.5619 7.32303 10.4969 7.9382C9.43196 8.55336 8.54796 9.43835 7.934 10.504L8.159 10.5C10.421 10.5 12.603 11.344 14.283 12.907L14.52 13.136C15.1691 13.7867 15.9404 14.3027 16.7895 14.6545C17.6386 15.0063 18.5489 15.1869 19.468 15.186C19.961 15.186 20.448 15.136 20.924 15.035C21.0729 14.0392 21.0052 13.0231 20.7255 12.0559C20.4459 11.0887 19.9609 10.1932 19.3037 9.43045C18.6465 8.66775 17.8324 8.0558 16.9171 7.63636C16.0018 7.21692 15.0068 6.99987 14 7ZM5 4C5.26522 4 5.51957 4.10536 5.70711 4.29289C5.89464 4.48043 6 4.73478 6 5C6 5.26522 5.89464 5.51957 5.70711 5.70711C5.51957 5.89464 5.26522 6 5 6C4.73478 6 4.48043 5.89464 4.29289 5.70711C4.10536 5.51957 4 5.26522 4 5C4 4.73478 4.10536 4.48043 4.29289 4.29289C4.48043 4.10536 4.73478 4 5 4Z" fill="#222222"/>
</svg>
