<svg width="32" height="32" viewBox="0 0 32 32" fill="none" xmlns="http://www.w3.org/2000/svg">
<path d="M15.9998 20.3332C18.0249 20.3332 19.6665 21.9749 19.6665 23.9999C19.6665 26.0249 18.0249 27.6666 15.9998 27.6666C13.9748 27.6666 12.3332 26.0249 12.3332 23.9999C12.3332 21.9749 13.9748 20.3332 15.9998 20.3332ZM15.9998 22.3332C15.0794 22.3332 14.3332 23.0794 14.3332 23.9999C14.3332 24.9204 15.0794 25.6666 15.9998 25.6666C16.9203 25.6666 17.6665 24.9204 17.6665 23.9999C17.6665 23.0794 16.9203 22.3332 15.9998 22.3332ZM15.9999 15C19.5168 15 22.5625 17.0171 24.0432 19.9575L22.5289 21.4702C21.5146 18.8545 18.9739 17 15.9999 17C13.026 17 10.4852 18.8545 9.47103 21.4702L7.95721 19.9565C9.43812 17.0167 12.4835 15 15.9999 15ZM16 9.6668C20.9805 9.6668 25.3677 12.207 27.9366 16.0625L26.4895 17.5099C24.3149 14.0026 20.4302 11.6668 16 11.6668C11.5698 11.6668 7.68522 14.0026 5.51054 17.5099L4.06345 16.0625C6.6324 12.207 11.0196 9.6668 16 9.6668ZM15.9998 4.3332C22.4509 4.3332 28.1765 7.43924 31.7628 12.2374L30.3323 13.6684C27.1236 9.22497 21.8994 6.3332 15.9998 6.3332C10.1007 6.3332 4.87686 9.22454 1.66815 13.6674L0.237671 12.2364C3.82397 7.4388 9.54923 4.3332 15.9998 4.3332Z" fill="#222222"/>
</svg>
