<svg width="32" height="32" viewBox="0 0 32 32" fill="none" xmlns="http://www.w3.org/2000/svg">
<path d="M26 2C26.1969 1.99993 26.3894 2.05797 26.5534 2.16684C26.7174 2.27571 26.8456 2.43056 26.922 2.612L26.962 2.725L28.962 9.725C29.002 9.86457 29.0111 10.0112 28.9888 10.1546C28.9664 10.2981 28.9131 10.4349 28.8325 10.5557C28.7519 10.6765 28.6459 10.7782 28.522 10.8539C28.3981 10.9296 28.2592 10.9774 28.115 10.994L28 11H25V16H31V18H29V31H27L27.001 28.464C26.4725 28.7702 25.8805 28.9506 25.271 28.991L25 29H7C6.29782 29.0011 5.60784 28.8166 5 28.465V31H3V18H1V16H6V12C6.00003 11.7551 6.08996 11.5187 6.25272 11.3356C6.41547 11.1526 6.63975 11.0357 6.883 11.007L7 11H7.238L6.086 8.406L7.914 7.594L9.427 11H12C12.2449 11 12.4813 11.09 12.6644 11.2527C12.8474 11.4155 12.9643 11.6397 12.993 11.883L13 12V16H23V11H20C19.855 11 19.7116 10.9685 19.58 10.9076C19.4483 10.8467 19.3315 10.7579 19.2376 10.6474C19.1437 10.5368 19.075 10.4072 19.0362 10.2674C18.9974 10.1277 18.9895 9.98113 19.013 9.838L19.038 9.725L21.038 2.725C21.0921 2.53574 21.2009 2.36665 21.3506 2.23892C21.5004 2.1112 21.6846 2.03052 21.88 2.007L22 2H26ZM27 18H5V25C4.99998 25.4779 5.17111 25.9401 5.48241 26.3027C5.7937 26.6654 6.22458 26.9046 6.697 26.977L6.851 26.995L7 27H25C25.5046 27.0002 25.9906 26.8096 26.3605 26.4665C26.7305 26.1234 26.9572 25.6532 26.995 25.15L27 25V18ZM11 13H8V16H11V13ZM25.245 4H22.754L21.325 9H26.674L25.245 4Z" fill="#222222"/>
</svg>
