<svg width="22" height="22" viewBox="0 0 22 22" fill="none" xmlns="http://www.w3.org/2000/svg">
<path d="M0.5375 3.719L2 5.1815V17.75C1.99997 18.3239 2.21924 18.8761 2.61296 19.2937C3.00668 19.7113 3.54508 19.9626 4.118 19.9963L4.25 20H16.8177L18.2803 21.4625C18.1595 21.4797 18.0365 21.491 17.9128 21.4963L17.75 21.5H4.25C3.28365 21.4999 2.35463 21.1268 1.65667 20.4585C0.958705 19.7902 0.54569 18.8782 0.50375 17.9128L0.5 17.75V4.25C0.5 4.07 0.51275 3.89225 0.5375 3.719ZM1.78025 0.719L21.2803 20.219L20.2197 21.2803L0.71975 1.78025L1.78025 0.71975V0.719ZM17.75 0.5C18.7163 0.500056 19.6454 0.873156 20.3433 1.54149C21.0413 2.20983 21.4543 3.12181 21.4963 4.08725L21.5 4.25V17.75C21.5 17.93 21.4873 18.107 21.4625 18.2803L20 16.8177V4.25C20 3.67609 19.7808 3.12386 19.387 2.7063C18.9933 2.28874 18.4549 2.03742 17.882 2.00375L17.75 2H5.1815L3.719 0.5375C3.8405 0.52025 3.96275 0.509 4.08725 0.50375L4.25 0.5H17.75ZM7.325 11.75C7.47252 12.4704 7.82836 13.1317 8.34835 13.6517C8.86833 14.1716 9.52958 14.5275 10.25 14.675V16.1975C9.12822 16.0351 8.08905 15.5142 7.28762 14.7126C6.4862 13.9111 5.9655 12.8718 5.80325 11.75H7.32575H7.325ZM11.75 14.9323L12.764 15.9462C12.4355 16.0634 12.096 16.1473 11.7507 16.1968L11.75 14.9323ZM14.9323 11.75L16.1968 11.7507C16.1465 12.101 16.0617 12.44 15.9462 12.764L14.9323 11.75ZM11.7507 5.80325C12.8723 5.9658 13.9112 6.48663 14.7125 7.28803C15.5137 8.08943 16.0344 9.12843 16.1968 10.25H14.675C14.5275 9.52958 14.1716 8.86833 13.6517 8.34835C13.1317 7.82836 12.4704 7.47252 11.75 7.325L11.7507 5.80325ZM6.05375 9.236L7.06775 10.25H5.80325C5.8535 9.89975 5.93825 9.56 6.05375 9.236ZM10.25 5.80325L10.2492 7.06775L9.23675 6.05375C9.56525 5.93632 9.9047 5.85215 10.25 5.8025V5.80325ZM16.25 5C16.4489 5 16.6397 5.07902 16.7803 5.21967C16.921 5.36032 17 5.55109 17 5.75C17 5.94891 16.921 6.13968 16.7803 6.28033C16.6397 6.42098 16.4489 6.5 16.25 6.5C16.0511 6.5 15.8603 6.42098 15.7197 6.28033C15.579 6.13968 15.5 5.94891 15.5 5.75C15.5 5.55109 15.579 5.36032 15.7197 5.21967C15.8603 5.07902 16.0511 5 16.25 5Z" fill="#222222"/>
</svg>
