<svg width="24" height="24" viewBox="0 0 24 24" fill="none" xmlns="http://www.w3.org/2000/svg">
<path d="M1.5 23.25C1.30109 23.25 1.11032 23.171 0.969672 23.0304C0.829019 22.8897 0.750002 22.6989 0.750002 22.5C0.748745 20.774 1.40875 19.113 2.59435 17.8586C3.77996 16.6042 5.40106 15.8516 7.12443 15.7556C8.84781 15.6595 10.5425 16.2273 11.8601 17.3423C13.1778 18.4572 14.0182 20.0345 14.2088 21.75H15.75C16.302 21.75 16.821 21.5513 17.2283 21.1958C17.4517 21.0016 17.6344 20.7651 17.766 20.4999C17.8975 20.2347 17.9753 19.9462 17.9948 19.6508L18 19.5V10.5H9.75V15H8.25V9.75004C8.25003 9.56633 8.31747 9.38903 8.43954 9.25176C8.56161 9.11448 8.72981 9.02678 8.91225 9.00529L9 9.00004H18.75C18.9337 9.00006 19.111 9.0675 19.2483 9.18957C19.3856 9.31164 19.4733 9.47985 19.4948 9.66228L19.5 9.75004V11.25H22.5C22.6837 11.2501 22.861 11.3175 22.9983 11.4396C23.1356 11.5616 23.2233 11.7298 23.2448 11.9123L23.25 12V18.75C23.25 18.9337 23.1825 19.111 23.0605 19.2483C22.9384 19.3856 22.7702 19.4733 22.5878 19.4948L22.5 19.5H19.5C19.5004 20.0356 19.3859 20.5651 19.1641 21.0526C18.9423 21.5402 18.6185 21.9744 18.2145 22.326C17.5829 22.8783 16.7837 23.202 15.9458 23.2448L15.75 23.25H1.5ZM4.3875 18.2723C3.3574 19.0302 2.63924 20.138 2.36775 21.3878L2.32425 21.6135L2.30325 21.75H5.3805L4.3875 18.2723ZM7.5 17.25C6.88275 17.25 6.291 17.3565 5.7405 17.5523L6.9405 21.75H8.05875L9.25875 17.5515C8.81055 17.3925 8.34273 17.2953 7.86825 17.2628L7.68075 17.253L7.5 17.25ZM10.6133 18.2723L9.61875 21.75H12.696L12.6758 21.6135C12.4464 20.2749 11.7071 19.0773 10.6133 18.2723ZM21.75 12.75H19.5V18H21.75V12.75ZM14.9955 0.750035C14.994 2.29654 14.6423 3.25803 13.6718 4.81804L13.107 5.70529C12.4575 6.74854 12.1485 7.43104 12.0435 8.25004H10.5323C10.6448 7.04029 11.0633 6.12303 11.9648 4.70403L12.387 4.04404C13.224 2.70004 13.4948 1.95529 13.4955 0.748535L14.9955 0.750035ZM18.7455 0.750035C18.744 2.29654 18.3923 3.25803 17.4218 4.81804L16.857 5.70529C16.2075 6.74854 15.8985 7.43104 15.7935 8.25004H14.2823C14.3948 7.04029 14.8133 6.12303 15.7148 4.70403L16.137 4.04404C16.974 2.70004 17.2448 1.95529 17.2455 0.748535L18.7455 0.750035Z" fill="#222222"/>
</svg>
