<svg width="30" height="31" viewBox="0 0 30 31" fill="none" xmlns="http://www.w3.org/2000/svg">
<path d="M10.6667 0L10.6657 1.666H19.3327L19.3333 0H21.3333L21.3327 1.666L27.3334 1.66663C28.3878 1.66663 29.2516 2.4825 29.3279 3.51737L29.3334 3.66663V19.5857C29.3334 20.0573 29.167 20.5116 28.8665 20.8702L28.7476 21L19.9999 29.7477C19.6665 30.0809 19.2276 30.2845 18.7617 30.3256L18.5859 30.3333H5.66675C2.978 30.3333 0.784931 28.211 0.671368 25.5502L0.666748 25.3333V3.66662C0.666748 2.61226 1.48262 1.74846 2.51749 1.67212L2.66675 1.66663L8.66575 1.666L8.6667 0L10.6667 0ZM27.3327 11.666H2.66675V25.3333C2.66675 26.931 3.91568 28.237 5.49048 28.3282L5.66675 28.3333L16.6657 28.333L16.6667 22.6666C16.6667 19.9779 18.7891 17.7848 21.4499 17.6712L21.6668 17.6666L27.3327 17.666V11.666ZM27.2517 19.666L21.6668 19.6666C20.0691 19.6666 18.763 20.9155 18.6718 22.4903L18.6667 22.6666L18.6657 28.253L27.2517 19.666ZM8.66575 3.666L2.66675 3.66662V9.666H27.3327L27.3334 3.66662L21.3327 3.666L21.3333 5.33333H19.3333L19.3327 3.666H10.6657L10.6667 5.33333H8.6667L8.66575 3.666Z" fill="#222222"/>
</svg>
