<svg width="31" height="30" viewBox="0 0 31 30" fill="none" xmlns="http://www.w3.org/2000/svg">
<path d="M14 26L13.995 26.2C13.9456 27.1895 13.5307 28.1254 12.8307 28.8265C12.1307 29.5276 11.1955 29.944 10.206 29.995L10 30H4.00005V28H10L10.15 27.995C10.6262 27.9592 11.0739 27.7542 11.4121 27.4171C11.7503 27.08 11.9567 26.6331 11.994 26.157L12 26H14ZM10 -1.80619e-07C10.536 -1.80619e-07 11.067 0.0469998 11.58 0.138L11.96 0.215L29.408 3.855C29.8301 3.94297 30.2124 4.16496 30.498 4.48788C30.7837 4.8108 30.9573 5.21737 30.993 5.647L31 5.813V12.187C31 12.6181 30.8606 13.0376 30.6028 13.383C30.3449 13.7285 29.9823 13.9814 29.569 14.104L29.409 14.144L15.855 16.97L17.622 23.476C17.6986 23.7581 17.7124 24.0536 17.6624 24.3417C17.6125 24.6297 17.5 24.9033 17.3328 25.1432C17.1657 25.3831 16.948 25.5834 16.6951 25.73C16.4422 25.8767 16.1602 25.9661 15.869 25.992L15.692 26H11.76C11.3498 26 10.9495 25.8738 10.6133 25.6386C10.2772 25.4034 10.0216 25.0704 9.88105 24.685L9.83305 24.535L7.95305 17.766C5.80055 17.2653 3.9075 15.9902 2.63465 14.1836C1.36181 12.377 0.798159 10.1653 1.05112 7.96983C1.30408 5.7744 2.35596 3.74878 4.0063 2.27899C5.65665 0.809209 7.79009 -0.0019851 10 -1.80619e-07ZM15.692 24L13.893 17.379L12.087 17.757C11.5412 17.8863 10.9844 17.9643 10.424 17.99L10.093 17.998L11.76 24H15.692ZM10 2C9.02515 2.00042 8.0611 2.20448 7.16964 2.5991C6.27818 2.99372 5.47898 3.57019 4.82324 4.2916C4.16749 5.013 3.66967 5.86342 3.36165 6.78838C3.05364 7.71334 2.94223 8.69244 3.03456 9.66295C3.12689 10.6335 3.42092 11.574 3.89783 12.4243C4.37473 13.2746 5.02398 14.0159 5.80399 14.6007C6.584 15.1855 7.47757 15.6009 8.42744 15.8204C9.37732 16.0398 10.3626 16.0584 11.32 15.875L11.651 15.805L29 12.187V5.813L11.538 2.169C11.0332 2.05622 10.5174 1.99955 10 2ZM10 4C11.3261 4 12.5979 4.52678 13.5356 5.46447C14.4733 6.40215 15 7.67392 15 9C15 10.3261 14.4733 11.5979 13.5356 12.5355C12.5979 13.4732 11.3261 14 10 14C8.67397 14 7.4022 13.4732 6.46451 12.5355C5.52683 11.5979 5.00005 10.3261 5.00005 9C5.00005 7.67392 5.52683 6.40215 6.46451 5.46447C7.4022 4.52678 8.67397 4 10 4ZM10 6C9.2044 6 8.44134 6.31607 7.87873 6.87868C7.31612 7.44129 7.00005 8.20435 7.00005 9C7.00005 9.79565 7.31612 10.5587 7.87873 11.1213C8.44134 11.6839 9.2044 12 10 12C10.7957 12 11.5588 11.6839 12.1214 11.1213C12.684 10.5587 13 9.79565 13 9C13 8.20435 12.684 7.44129 12.1214 6.87868C11.5588 6.31607 10.7957 6 10 6Z" fill="#222222"/>
</svg>
