<svg width="21" height="24" viewBox="0 0 21 24" fill="none" xmlns="http://www.w3.org/2000/svg">
<path d="M8.39878 10H7.75H6.25H5.60378L5.45695 10.1468L2.05624 13.546C2.05602 13.5462 2.05581 13.5464 2.0556 13.5466C1.79366 13.8094 1.62609 13.9896 1.51126 14.1442L1.56791 14.1337C2.02736 14.0486 2.50322 14 2.99125 14H2.99392H2.995V15C3.88129 14.9979 4.75919 15.1716 5.57794 15.5109C6.39669 15.8503 7.14004 16.3486 7.765 16.977C8.25128 17.4658 8.82962 17.8533 9.46659 18.1172C10.0339 18.3523 10.6376 18.4851 11.25 18.5101L8.39878 10ZM8.39878 10L8.5532 10.15L11.9162 13.417L11.9163 13.4171C12.2573 13.7482 12.4532 13.9845 12.573 14.2076C12.6811 14.409 12.75 14.6426 12.75 15V17.3667L12.1037 17.4623C11.8807 17.4952 11.6757 17.5145 11.479 17.5145L11.476 17.5145L11.4736 17.5145C10.9163 17.5158 10.3642 17.4067 9.84935 17.1934C9.33454 16.9801 8.8671 16.6669 8.47406 16.2719L8.39878 10ZM1.25 17.8055V21.75C1.25 22.4192 1.80883 22.9895 2.50554 23C7.48154 22.991 10.4856 22.991 11.5084 23C11.9282 23.0036 12.2276 22.8778 12.4123 22.7071C12.5849 22.5475 12.75 22.2643 12.75 21.75V20.9157L12.364 20.96C12.0821 20.9923 11.7862 21.0145 11.479 21.0145L11.4783 21.0145C11.478 21.0145 11.4777 21.0145 11.4774 21.0145H11.476L1.25 17.8055ZM1.25 17.8055L1.98852 17.6241C2.31769 17.5433 2.65525 17.5016 2.9942 17.5M1.25 17.8055L2.9942 17.5M2.9942 17.5C2.99421 17.5 2.99423 17.5 2.99425 17.5L2.9942 17.5ZM17.3232 2.42678L16.9697 2.78033L17.3232 2.42678ZM17.3232 2.42678C17.3701 2.47366 17.4337 2.5 17.5 2.5C17.5663 2.5 17.6299 2.47366 17.6768 2.42678C17.7237 2.37989 17.75 2.3163 17.75 2.25C17.75 2.1837 17.7237 2.12011 17.6768 2.07322C17.6299 2.02634 17.5663 2 17.5 2C17.4337 2 17.3701 2.02634 17.3232 2.07323C17.2763 2.12011 17.25 2.1837 17.25 2.25C17.25 2.3163 17.2763 2.37989 17.3232 2.42678ZM5.5 1H11.25V1.5V3V3.4297L10.5089 3.66562C9.85453 3.87393 9.28319 4.28463 8.87723 4.83852C8.52025 5.32558 8.30735 5.90124 8.26006 6.5H7.75H6.25H5.60371L5.45711 6.35339L2.75188 3.64817C2.77752 2.95581 3.06378 2.29713 3.55546 1.80546C4.07118 1.28973 4.77065 1 5.5 1ZM20 0.75C20 0.816304 19.9737 0.879892 19.9268 0.926775C19.8799 0.973662 19.8163 1 19.75 1C19.6837 1 19.6201 0.973662 19.5732 0.926775C19.5263 0.879892 19.5 0.816304 19.5 0.75C19.5 0.683696 19.5263 0.620109 19.5732 0.573225C19.6201 0.526338 19.6837 0.5 19.75 0.5C19.8163 0.5 19.8799 0.526338 19.9268 0.573225C19.9737 0.620109 20 0.683696 20 0.75ZM19.5 3.75C19.5 3.6837 19.5263 3.62011 19.5732 3.57322C19.6201 3.52634 19.6837 3.5 19.75 3.5C19.8163 3.5 19.8799 3.52634 19.9268 3.57323C19.9737 3.62011 20 3.6837 20 3.75C20 3.8163 19.9737 3.87989 19.9268 3.92678C19.8799 3.97366 19.8163 4 19.75 4C19.6837 4 19.6201 3.97366 19.5732 3.92678C19.5263 3.87989 19.5 3.8163 19.5 3.75Z" stroke="black" stroke-width="2"/>
</svg>
