<svg width="22" height="23" viewBox="0 0 22 23" fill="none" xmlns="http://www.w3.org/2000/svg">
<path d="M7.74996 0L7.74925 1.2495H14.2495L14.2499 0H15.7499L15.7495 1.2495L20.25 1.24997C21.0408 1.24997 21.6886 1.86188 21.7459 2.63803L21.75 2.74997V14.6893C21.75 15.043 21.6252 15.3837 21.3998 15.6526L21.3106 15.75L14.7499 22.3108C14.4998 22.5607 14.1706 22.7133 13.8212 22.7442L13.6894 22.75H4C1.98344 22.75 0.338637 21.1582 0.253465 19.1626L0.25 19V2.74996C0.25 1.95919 0.861907 1.31135 1.63805 1.25409L1.75 1.24997L6.24925 1.2495L6.24996 0L7.74996 0ZM20.2495 8.7495H1.75V19C1.75 20.1982 2.6867 21.1777 3.8678 21.2462L4 21.25L12.2493 21.2498L12.25 17C12.25 14.9834 13.8417 13.3386 15.8374 13.2534L16 13.2499L20.2495 13.2495V8.7495ZM20.1888 14.7495L16 14.7499C14.8017 14.7499 13.8222 15.6867 13.7538 16.8677L13.75 17L13.7493 21.1898L20.1888 14.7495ZM6.24925 2.7495L1.75 2.74996V7.2495H20.2495L20.25 2.74996L15.7495 2.7495L15.7499 4H14.2499L14.2495 2.7495H7.74925L7.74996 4H6.24996L6.24925 2.7495Z" fill="#222222"/>
</svg>
