<svg width="22" height="19" viewBox="0 0 22 19" fill="none" xmlns="http://www.w3.org/2000/svg">
<path d="M18.5 11.25C18.5 11.4489 18.421 11.6397 18.2803 11.7803C18.1397 11.921 17.9489 12 17.75 12C17.5511 12 17.3603 11.921 17.2197 11.7803C17.079 11.6397 17 11.4489 17 11.25C17 11.0511 17.079 10.8603 17.2197 10.7197C17.3603 10.579 17.5511 10.5 17.75 10.5C17.9489 10.5 18.1397 10.579 18.2803 10.7197C18.421 10.8603 18.5 11.0511 18.5 11.25ZM4.25 10.5C4.05109 10.5 3.86032 10.579 3.71967 10.7197C3.57902 10.8603 3.5 11.0511 3.5 11.25C3.5 11.4489 3.57902 11.6397 3.71967 11.7803C3.86032 11.921 4.05109 12 4.25 12C4.44891 12 4.63968 11.921 4.78033 11.7803C4.92098 11.6397 5 11.4489 5 11.25C5 11.0511 4.92098 10.8603 4.78033 10.7197C4.63968 10.579 4.44891 10.5 4.25 10.5ZM19.7698 6.75L20.0848 7.58925C20.9398 8.277 21.5 9.3195 21.5 10.5V17.25C21.5 18.0772 20.8272 18.75 20 18.75H18.5C17.6728 18.75 17 18.0772 17 17.25V15.75H5V17.25C5 18.0772 4.32725 18.75 3.5 18.75H2C1.17275 18.75 0.5 18.0772 0.5 17.25V10.5C0.5 9.31875 1.0595 8.27625 1.916 7.5885L2.231 6.75H0.5V5.25H2.75V5.364L4.115 1.7235C4.22301 1.43806 4.41515 1.19215 4.66599 1.01831C4.91684 0.844473 5.21456 0.750909 5.51975 0.75H16.4802C17.102 0.75 17.6653 1.14075 17.885 1.72275L19.25 5.36325V5.25H21.5V6.75H19.7698ZM3.5 15.75H2V17.25H3.5V15.75ZM20 15.75H18.5V17.25H20V15.75ZM20 14.25V10.5C20 9.2595 18.9905 8.25 17.75 8.25H4.25C3.0095 8.25 2 9.2595 2 10.5V14.25H20ZM17.75 6.75H18.1677L16.4802 2.25H5.51975L3.83225 6.75H17.75ZM6.5 12H15.5V10.5H6.5V12Z" fill="#222222"/>
</svg>
