<svg width="24" height="18" viewBox="0 0 24 18" fill="none" xmlns="http://www.w3.org/2000/svg">
<path d="M12 16.0797L12.259 16.1491L15.0584 16.8998C15.0585 16.8998 15.0586 16.8998 15.0587 16.8998C15.0587 16.8999 15.0587 16.8999 15.0587 16.8999C15.4557 17.0061 15.8757 16.9875 16.2617 16.8466C16.6478 16.7056 16.9811 16.4491 17.2162 16.1119C17.4514 15.7748 17.5769 15.3734 17.5758 14.9624C17.5746 14.5514 17.4469 14.1507 17.21 13.8149L12 16.0797ZM12 16.0797L11.741 16.1491L8.94162 16.8998C8.67751 16.9705 8.4017 16.9863 8.13123 16.9462C7.86485 16.9067 7.60922 16.8139 7.37966 16.6733L7.25883 16.5935C7.04913 16.4434 6.87042 16.254 6.73257 16.0359C6.59224 15.8139 6.49702 15.5664 6.45235 15.3075C6.40769 15.0487 6.41445 14.7836 6.47225 14.5273C6.53004 14.2712 6.63771 14.0289 6.78912 13.8143C6.78916 13.8143 6.7892 13.8142 6.78924 13.8141L10.3666 8.74808L10.367 8.7476C10.496 8.56458 10.6549 8.40457 10.837 8.27422L10.9451 8.20212C11.3765 7.93426 11.8938 7.84045 12.3921 7.94005C12.8942 8.04041 13.3387 8.32954 13.634 8.74786C13.634 8.74788 13.634 8.7479 13.634 8.74792L17.2099 13.8148L12 16.0797ZM10.25 3C10.25 3.53043 10.0393 4.03914 9.66421 4.41421C9.28914 4.78929 8.78043 5 8.25 5C7.71957 5 7.21086 4.78929 6.83579 4.41421C6.46071 4.03914 6.25 3.53043 6.25 3C6.25 2.46957 6.46071 1.96086 6.83579 1.58579C7.21086 1.21071 7.71957 1 8.25 1C8.78043 1 9.28914 1.21071 9.66421 1.58579C10.0393 1.96086 10.25 2.46957 10.25 3ZM17.1642 4.41421C16.7891 4.78929 16.2804 5 15.75 5C15.2196 5 14.7109 4.78929 14.3358 4.41421C13.9607 4.03914 13.75 3.53043 13.75 3C13.75 2.46957 13.9607 1.96086 14.3358 1.58579C14.7109 1.21071 15.2196 1 15.75 1C16.2804 1 16.7891 1.21071 17.1642 1.58579C17.5393 1.96086 17.75 2.46957 17.75 3C17.75 3.53043 17.5393 4.03914 17.1642 4.41421ZM21.6642 7.58579C22.0393 7.96086 22.25 8.46957 22.25 9C22.25 9.53043 22.0393 10.0391 21.6642 10.4142C21.2891 10.7893 20.7804 11 20.25 11C19.7196 11 19.2109 10.7893 18.8358 10.4142C18.4607 10.0391 18.25 9.53043 18.25 9C18.25 8.46957 18.4607 7.96086 18.8358 7.58579C19.2109 7.21071 19.7196 7 20.25 7C20.7804 7 21.2891 7.21071 21.6642 7.58579ZM2.33579 10.4142C1.96071 10.0391 1.75 9.53043 1.75 9C1.75 8.46957 1.96071 7.96086 2.33579 7.58579C2.71086 7.21071 3.21957 7 3.75 7C4.28043 7 4.78914 7.21071 5.16421 7.58579C5.53929 7.96086 5.75 8.46957 5.75 9C5.75 9.53043 5.53929 10.0391 5.16421 10.4142C4.78914 10.7893 4.28043 11 3.75 11C3.21957 11 2.71086 10.7893 2.33579 10.4142Z" stroke="black" stroke-width="2"/>
</svg>
