<svg width="21" height="24" viewBox="0 0 21 24" fill="none" xmlns="http://www.w3.org/2000/svg">
<path d="M12.3905 8.32C12.2619 7.9364 12.0161 7.60289 11.6877 7.3666C11.3594 7.13031 10.965 7.00318 10.5605 7.00318C10.1559 7.00318 9.7616 7.13031 9.43322 7.3666C9.10484 7.60289 8.85901 7.9364 8.73048 8.32L6.31048 13.17C6.03289 13.6602 5.89457 14.2169 5.91048 14.78C5.94171 15.3613 6.18668 15.9105 6.59831 16.3222C7.00994 16.7338 7.55919 16.9788 8.14048 17.01C9.0449 16.9449 9.89939 16.5706 10.5605 15.95C11.2216 16.5706 12.0761 16.9449 12.9805 17.01C13.5618 16.9788 14.111 16.7338 14.5227 16.3222C14.9343 15.9105 15.1793 15.3613 15.2105 14.78C15.2264 14.2169 15.0881 13.6602 14.8105 13.17L12.3905 8.32ZM9.67048 12.7C9.67048 12.65 9.68048 11.47 10.5605 11.47C11.4405 11.47 11.4405 12.65 11.4405 12.7C11.3501 13.3883 11.0417 14.0296 10.5605 14.53C10.0756 14.031 9.7636 13.3895 9.67048 12.7ZM12.9805 16.01C12.3413 15.9483 11.7403 15.6777 11.2705 15.24C11.9326 14.5473 12.3444 13.6534 12.4405 12.7C12.4682 12.436 12.4436 12.1692 12.3681 11.9147C12.2926 11.6602 12.1677 11.4231 12.0006 11.217C11.8334 11.0108 11.6272 10.8396 11.3939 10.7131C11.1605 10.5867 10.9045 10.5075 10.6405 10.48L10.5605 10.47C10.295 10.4865 10.0354 10.5553 9.79663 10.6724C9.55783 10.7895 9.3445 10.9527 9.1689 11.1524C8.99329 11.3522 8.85886 11.5847 8.77333 11.8365C8.6878 12.0883 8.65285 12.3546 8.67048 12.62L8.68048 12.7C8.77583 13.6536 9.18773 14.5478 9.85048 15.24C9.38065 15.6777 8.77964 15.9483 8.14048 16.01C7.82406 15.981 7.5278 15.842 7.30312 15.6174C7.07844 15.3927 6.93952 15.0964 6.91048 14.78C6.89441 14.3736 6.99504 13.971 7.20048 13.62L9.62048 8.77C9.95048 8.12 10.1705 8.01 10.5605 8.01C10.9505 8.01 11.1705 8.12 11.5005 8.77L13.9205 13.62C14.1259 13.971 14.2266 14.3736 14.2105 14.78C14.1814 15.0964 14.0425 15.3927 13.8178 15.6174C13.5932 15.842 13.2969 15.981 12.9805 16.01ZM19.9905 5.66C19.9702 5.55649 19.9176 5.46206 19.8404 5.39021C19.7632 5.31837 19.6652 5.27279 19.5605 5.26C16.1823 4.92552 13.068 3.28586 10.8805 0.689996C10.8317 0.636309 10.7723 0.59341 10.706 0.564053C10.6397 0.534697 10.568 0.519531 10.4955 0.519531C10.423 0.519531 10.3513 0.534697 10.285 0.564053C10.2187 0.59341 10.1592 0.636309 10.1105 0.689996C7.92292 3.28586 4.80866 4.92552 1.43048 5.26C1.32578 5.27279 1.2278 5.31837 1.15057 5.39021C1.07333 5.46206 1.0208 5.55649 1.00048 5.66C-0.579519 13.85 2.55048 19.68 10.3005 22.97C10.3622 22.9961 10.4285 23.0096 10.4955 23.0096C10.5625 23.0096 10.6288 22.9961 10.6905 22.97C18.4405 19.68 21.5605 13.86 19.9905 5.66ZM10.5005 21.96C3.40048 18.87 0.590481 13.71 1.93048 6.2C5.2223 5.78699 8.25996 4.21677 10.5005 1.77C12.741 4.21677 15.7787 5.78699 19.0705 6.2C20.4005 13.71 17.5905 18.87 10.5005 21.96Z" fill="#484848"/>
</svg>
