<svg width="24" height="24" viewBox="0 0 24 24" fill="none" xmlns="http://www.w3.org/2000/svg">
<path d="M2.6145 5.79526L3.69975 6.88126C2.74914 8.41917 2.24702 10.192 2.25 12C2.25 17.385 6.615 21.75 12 21.75C13.8772 21.75 15.63 21.2198 17.118 20.3003L18.204 21.3863C16.3648 22.6052 14.2065 23.2536 12 23.25C5.787 23.25 0.75 18.213 0.75 12C0.75 9.70726 1.43625 7.57426 2.6145 5.79526ZM2.78025 1.71976L22.2803 21.2198L21.2197 22.2803L1.71975 2.78026L2.78025 1.71976ZM12 0.750014C18.213 0.750014 23.25 5.78701 23.25 12C23.25 14.2928 22.5645 16.425 21.3862 18.204L20.3002 17.118C21.2507 15.5803 21.7528 13.8077 21.75 12C21.75 6.61501 17.385 2.25001 12 2.25001C10.192 2.24703 8.41915 2.74915 6.88125 3.69976L5.79525 2.61451C7.63459 1.39518 9.79321 0.746522 12 0.750014ZM8.325 12.75C8.47252 13.4704 8.82836 14.1317 9.34834 14.6517C9.86833 15.1717 10.5296 15.5275 11.25 15.675V17.1975C10.1282 17.0351 9.08905 16.5142 8.28762 15.7126C7.4862 14.9111 6.9655 13.8718 6.80325 12.75H8.32575H8.325ZM12.75 15.9323L13.764 16.9463C13.4355 17.0634 13.096 17.1474 12.7507 17.1968L12.75 15.9323ZM15.9323 12.75L17.1968 12.7508C17.1465 13.101 17.0618 13.44 16.9462 13.764L15.9323 12.75ZM12.7507 6.80326C13.8723 6.96581 14.9112 7.48664 15.7125 8.28804C16.5137 9.08944 17.0344 10.1284 17.1968 11.25H15.675C15.5275 10.5296 15.1716 9.86835 14.6517 9.34836C14.1317 8.82837 13.4704 8.47254 12.75 8.32501L12.7507 6.80326ZM7.05375 10.236L8.06775 11.25H6.80325C6.8535 10.8998 6.93825 10.56 7.05375 10.236ZM11.25 6.80326L11.2492 8.06776L10.2367 7.05376C10.5652 6.93634 10.9047 6.85217 11.25 6.80251V6.80326ZM17.25 6.00001C17.4489 6.00001 17.6397 6.07903 17.7803 6.21968C17.921 6.36034 18 6.5511 18 6.75001C18 6.94893 17.921 7.13969 17.7803 7.28034C17.6397 7.421 17.4489 7.50001 17.25 7.50001C17.0511 7.50001 16.8603 7.421 16.7197 7.28034C16.579 7.13969 16.5 6.94893 16.5 6.75001C16.5 6.5511 16.579 6.36034 16.7197 6.21968C16.8603 6.07903 17.0511 6.00001 17.25 6.00001Z" fill="#222222"/>
</svg>
