<svg width="24" height="18" viewBox="0 0 24 18" fill="none" xmlns="http://www.w3.org/2000/svg">
<path d="M12.0003 12.2499C13.5191 12.2499 14.7503 13.4811 14.7503 14.9999C14.7503 16.5187 13.5191 17.7499 12.0003 17.7499C10.4816 17.7499 9.25034 16.5187 9.25034 14.9999C9.25034 13.4811 10.4816 12.2499 12.0003 12.2499ZM12.0003 13.7499C11.31 13.7499 10.7503 14.3095 10.7503 14.9999C10.7503 15.6903 11.31 16.2499 12.0003 16.2499C12.6907 16.2499 13.2503 15.6903 13.2503 14.9999C13.2503 14.3095 12.6907 13.7499 12.0003 13.7499ZM12.0004 8.24998C14.638 8.24998 16.9223 9.76282 18.0328 11.9681L16.8971 13.1027C16.1364 11.1409 14.2309 9.74998 12.0004 9.74998C9.76997 9.74998 7.86439 11.1409 7.10373 13.1027L5.96837 11.9674C7.07905 9.76248 9.3631 8.24998 12.0004 8.24998ZM12.0005 4.25008C15.7358 4.25008 19.0262 6.15524 20.9529 9.04687L19.8676 10.1324C18.2366 7.50195 15.3231 5.75008 12.0005 5.75008C8.67785 5.75008 5.76437 7.50195 4.13337 10.1324L3.04805 9.04687C4.97476 6.15524 8.26514 4.25008 12.0005 4.25008ZM12.0003 0.249878C16.8386 0.249878 21.1328 2.57941 23.8225 6.17803L22.7497 7.25127C20.3432 3.91871 16.425 1.74988 12.0003 1.74988C7.57598 1.74988 3.6581 3.91838 1.25157 7.25052L0.178711 6.17728C2.86843 2.57908 7.16238 0.249878 12.0003 0.249878Z" fill="#222222"/>
</svg>
