<svg width="24" height="23" viewBox="0 0 24 23" fill="none" xmlns="http://www.w3.org/2000/svg">
<path d="M19.5 0.5C19.6476 0.49995 19.792 0.543478 19.915 0.625129C20.038 0.706781 20.1342 0.822923 20.1915 0.959L20.2215 1.04375L21.7215 6.29375C21.7515 6.39843 21.7584 6.50838 21.7416 6.61597C21.7248 6.72356 21.6848 6.82621 21.6243 6.91678C21.5639 7.00735 21.4844 7.08367 21.3915 7.14044C21.2986 7.1972 21.1944 7.23306 21.0863 7.2455L21 7.25H18.75V11H23.25V12.5H21.75V22.25H20.25L20.2507 20.348C19.8544 20.5777 19.4104 20.7129 18.9533 20.7432L18.75 20.75H5.25C4.72337 20.7508 4.20588 20.6124 3.75 20.3488V22.25H2.25V12.5H0.75V11H4.5V8C4.50002 7.8163 4.56747 7.639 4.68954 7.50172C4.81161 7.36444 4.97981 7.27674 5.16225 7.25525L5.25 7.25H5.4285L4.5645 5.3045L5.9355 4.6955L7.07025 7.25H9C9.1837 7.25002 9.361 7.31747 9.49828 7.43954C9.63556 7.56161 9.72326 7.72981 9.74475 7.91225L9.75 8V11H17.25V7.25H15C14.8912 7.25002 14.7837 7.22638 14.685 7.18071C14.5863 7.13505 14.4986 7.06845 14.4282 6.98554C14.3578 6.90263 14.3062 6.80539 14.2772 6.70056C14.2481 6.59574 14.2421 6.48585 14.2598 6.3785L14.2785 6.29375L15.7785 1.04375C15.8191 0.901801 15.9006 0.774985 16.013 0.679192C16.1253 0.583399 16.2634 0.522891 16.41 0.50525L16.5 0.5H19.5ZM20.25 12.5H3.75V17.75C3.74998 18.1085 3.87833 18.4551 4.11181 18.7271C4.34528 18.9991 4.66843 19.1784 5.02275 19.2327L5.13825 19.2463L5.25 19.25H18.75C19.1284 19.2501 19.4929 19.1072 19.7704 18.8499C20.0479 18.5926 20.2179 18.2399 20.2463 17.8625L20.25 17.75V12.5ZM8.25 8.75H6V11H8.25V8.75ZM18.9338 2H17.0655L15.9938 5.75H20.0055L18.9338 2Z" fill="#222222"/>
</svg>
